<svg width="16" height="16" viewBox="0 0 16 16" fill="none" xmlns="http://www.w3.org/2000/svg">
<circle cx="8" cy="8" r="8" fill="black"/>
<path d="M3.59348 4.60317C3.67615 4.67196 3.78835 4.70635 3.93008 4.70635C4.02456 4.70635 4.15448 4.69202 4.31983 4.66336C4.65052 4.61177 4.93693 4.58598 5.17904 4.58598C5.52155 4.58598 5.83453 4.6433 6.11798 4.75794C6.40734 4.86684 6.63765 5.03593 6.8089 5.26521C6.98015 5.49449 7.06578 5.77249 7.06578 6.09921C7.06578 6.78131 6.64355 7.26565 5.7991 7.55225C6.366 7.66689 6.77051 7.8675 7.01263 8.1541C7.25475 8.4407 7.3758 8.82187 7.3758 9.29762C7.3758 9.63007 7.27837 9.92526 7.08349 10.1832C6.89452 10.4411 6.62288 10.6418 6.26857 10.7851C5.92016 10.9284 5.5186 11 5.06389 11C4.69776 11 4.35821 10.9484 4.04523 10.8452C3.73225 10.7363 3.47833 10.5787 3.28345 10.3724C3.09448 10.1603 3 9.9052 3 9.60714C3 9.33774 3.08563 9.11993 3.25688 8.9537C3.42813 8.78748 3.64072 8.70436 3.89465 8.70436C3.96551 8.70436 4.01275 8.7101 4.03637 8.72156C4.0659 8.73302 4.08066 8.76168 4.08066 8.80754C4.08066 8.82474 4.04523 8.89638 3.97437 9.02249C3.90941 9.14859 3.87693 9.32055 3.87693 9.53836C3.87693 9.85362 3.97142 10.0944 4.16039 10.2606C4.35526 10.4268 4.64757 10.5099 5.03732 10.5099C5.4684 10.5099 5.805 10.3981 6.04712 10.1746C6.28923 9.95106 6.41029 9.63867 6.41029 9.23743C6.41029 8.83047 6.29514 8.49228 6.06483 8.22288C5.83453 7.95348 5.48612 7.81878 5.0196 7.81878C4.89559 7.81878 4.78634 7.82738 4.69186 7.84458C4.59738 7.86177 4.52946 7.87037 4.48813 7.87037C4.4586 7.87037 4.43203 7.85604 4.40841 7.82738C4.39069 7.79299 4.38183 7.75 4.38183 7.69841C4.38183 7.61817 4.42022 7.56085 4.49699 7.52646C4.57375 7.48633 4.70958 7.44621 4.90445 7.40608C5.37097 7.32011 5.6869 7.17681 5.85225 6.97619C6.01759 6.76984 6.10027 6.49184 6.10027 6.1422C6.10027 5.80401 6.00578 5.54034 5.81681 5.35119C5.63375 5.16204 5.38278 5.06746 5.06389 5.06746C4.66233 5.06746 4.35231 5.14771 4.13381 5.3082C3.91532 5.4687 3.74997 5.77249 3.63777 6.21958L3.59348 6.40873L3.30117 6.31415V4.60317L3.4429 4.5L3.59348 4.60317Z" fill="white"/>
<path d="M12.6723 6.27976C12.6723 6.60075 12.5925 6.89021 12.4331 7.14815C12.2796 7.40608 12.0493 7.6067 11.7422 7.75C12.1378 7.8761 12.4449 8.06812 12.6634 8.32606C12.8878 8.58399 13 8.87059 13 9.18585C13 9.70745 12.8169 10.1201 12.4508 10.4239C12.0847 10.7277 11.5001 10.8796 10.6969 10.8796H8.22559L8.1193 10.5873L8.32303 10.5357C8.54743 10.4727 8.69801 10.3896 8.77478 10.2864C8.85155 10.1832 8.88993 9.99978 8.88993 9.73611V5.48876C8.88993 5.41424 8.87517 5.36265 8.84564 5.33399C8.81612 5.2996 8.76592 5.28241 8.69506 5.28241H8.1813L8.07501 4.96429C8.32893 4.86684 8.66258 4.78086 9.07595 4.70635C9.48932 4.6261 9.88792 4.58598 10.2718 4.58598C11.0808 4.58598 11.6831 4.74361 12.0788 5.05886C12.4744 5.37412 12.6723 5.78108 12.6723 6.27976ZM9.76687 9.30622C9.76687 9.77623 9.8643 10.0829 10.0592 10.2262C10.254 10.3638 10.4844 10.4325 10.7501 10.4325C11.1635 10.4325 11.4883 10.315 11.7245 10.08C11.9607 9.83929 12.0788 9.5269 12.0788 9.14286C12.0788 8.92504 12.0197 8.72729 11.9016 8.5496C11.7894 8.36618 11.627 8.22002 11.4144 8.11111C11.2018 8.0022 10.9538 7.94775 10.6704 7.94775C10.57 7.94775 10.4637 7.93629 10.3515 7.91336C10.2452 7.89043 10.1596 7.86464 10.0946 7.83598C10.006 7.79586 9.96174 7.7328 9.96174 7.64683C9.96174 7.54365 10.0031 7.49206 10.0857 7.49206C10.1094 7.49206 10.1566 7.50353 10.2275 7.52646C10.3042 7.54365 10.4046 7.55225 10.5286 7.55225C10.9302 7.55225 11.2402 7.43761 11.4587 7.20833C11.6831 6.97906 11.7953 6.67526 11.7953 6.29696C11.7953 5.93585 11.6684 5.64065 11.4144 5.41138C11.1664 5.1821 10.8151 5.06746 10.3603 5.06746C9.96469 5.06746 9.76687 5.19929 9.76687 5.46296V9.30622Z" fill="white"/>
</svg>
