<svg width="411" height="414" viewBox="0 0 411 414" fill="none" xmlns="http://www.w3.org/2000/svg">
<path opacity="0.99" d="M204.672 311.02C204.672 367.62 158.965 413.5 102.586 413.5C46.2074 413.5 0.5 367.62 0.5 311.02C0.5 254.42 46.2074 208.54 102.586 208.54C158.965 208.54 204.672 254.42 204.672 311.02Z" stroke="white"/>
<path opacity="0.99" d="M408.408 104.02C408.408 160.424 363.321 206.103 307.759 206.103C252.198 206.103 207.11 160.424 207.11 104.02C207.11 47.6158 252.198 1.93715 307.759 1.93715C363.321 1.93715 408.408 47.6158 408.408 104.02Z" fill="#E20016" stroke="#E20016" stroke-width="3.87431"/>
<path opacity="0.99" d="M204.672 104.02C204.672 161.199 158.96 207.54 102.586 207.54C46.2121 207.54 0.5 161.199 0.5 104.02C0.5 46.841 46.2121 0.5 102.586 0.5C158.96 0.5 204.672 46.841 204.672 104.02Z" stroke="white"/>
<path opacity="0.99" d="M409.846 311.02C409.846 367.62 364.138 413.5 307.759 413.5C251.38 413.5 205.673 367.62 205.673 311.02C205.673 254.42 251.38 208.54 307.759 208.54C364.138 208.54 409.846 254.42 409.846 311.02Z" stroke="white"/>
</svg>
