<svg width="411" height="414" viewBox="0 0 411 414" fill="none" xmlns="http://www.w3.org/2000/svg">
<path opacity="0.99" d="M203.75 311.02C203.75 367.114 158.452 412.577 102.586 412.577C46.7203 412.577 1.42268 367.114 1.42268 311.02C1.42268 254.927 46.7203 209.463 102.586 209.463C158.452 209.463 203.75 254.927 203.75 311.02Z" stroke="white" stroke-width="2.84536"/>
<path opacity="0.99" d="M408.408 104.02C408.408 160.424 363.32 206.103 307.759 206.103C252.197 206.103 207.11 160.424 207.11 104.02C207.11 47.6158 252.197 1.93715 307.759 1.93715C363.32 1.93715 408.408 47.6158 408.408 104.02Z" fill="#E20016" stroke="#E20016" stroke-width="3.87431"/>
<path opacity="0.99" d="M203.75 104.02C203.75 160.702 158.439 206.617 102.586 206.617C46.7337 206.617 1.42268 160.702 1.42268 104.02C1.42268 47.3384 46.7337 1.42268 102.586 1.42268C158.439 1.42268 203.75 47.3384 203.75 104.02Z" stroke="white" stroke-width="2.84536"/>
<path opacity="0.99" d="M408.922 311.02C408.922 367.114 363.625 412.577 307.759 412.577C251.893 412.577 206.595 367.114 206.595 311.02C206.595 254.927 251.893 209.463 307.759 209.463C363.625 209.463 408.922 254.927 408.922 311.02Z" stroke="white" stroke-width="2.84536"/>
</svg>
