<svg width="411" height="414" viewBox="0 0 411 414" fill="none" xmlns="http://www.w3.org/2000/svg">
<path d="M375.986 187.082C375.986 289.846 292.05 373.165 188.493 373.165C84.9364 373.165 1 289.846 1 187.082C1 84.319 84.9364 1 188.493 1C292.05 1 375.986 84.319 375.986 187.082Z" stroke="white" stroke-width="2"/>
<path d="M350.476 167.876C350.476 260.051 276.673 334.753 185.659 334.753C94.6442 334.753 20.8414 260.051 20.8414 167.876C20.8414 75.7014 94.6442 1 185.659 1C276.673 1 350.476 75.7014 350.476 167.876Z" stroke="white" stroke-width="2"/>
<path d="M410 32.0103C410 49.1404 396.167 63.0206 379.112 63.0206C362.057 63.0206 348.224 49.1404 348.224 32.0103C348.224 14.8802 362.057 1 379.112 1C396.167 1 410 14.8802 410 32.0103Z" stroke="white" stroke-width="2"/>
<path d="M65.9017 298.763L131.803 414H0L65.9017 298.763Z" fill="#E20016"/>
</svg>
