<svg width="411" height="414" viewBox="0 0 411 414" fill="none" xmlns="http://www.w3.org/2000/svg">
<g clip-path="url(#clip0)">
<path d="M376.486 187.082C376.486 290.126 292.322 373.665 188.493 373.665C84.6638 373.665 0.5 290.126 0.5 187.082C0.5 84.0393 84.6638 0.5 188.493 0.5C292.322 0.5 376.486 84.0393 376.486 187.082Z" stroke="white"/>
<path d="M350.976 167.876C350.976 260.321 276.955 335.253 185.658 335.253C94.3619 335.253 20.3411 260.321 20.3411 167.876C20.3411 75.4311 94.3619 0.5 185.658 0.5C276.955 0.5 350.976 75.4311 350.976 167.876Z" stroke="white"/>
<path d="M410.5 32.0103C410.5 49.4148 396.446 63.5206 379.112 63.5206C361.779 63.5206 347.724 49.4148 347.724 32.0103C347.724 14.6058 361.779 0.5 379.112 0.5C396.446 0.5 410.5 14.6058 410.5 32.0103Z" stroke="white"/>
<path d="M65.9017 298.763L131.803 414H0L65.9017 298.763Z" fill="#E20016"/>
</g>
<defs>
<clipPath id="clip0">
<rect width="411" height="414" fill="white"/>
</clipPath>
</defs>
</svg>
