<svg width="411" height="414" viewBox="0 0 411 414" fill="none" xmlns="http://www.w3.org/2000/svg">
<g clip-path="url(#clip0)">
<path d="M379.802 185.489C339.437 231.256 269.756 235.51 224.165 194.991C178.574 154.472 174.335 84.5238 214.7 38.7567C255.065 -7.01046 324.746 -11.264 370.337 29.2547C415.928 69.7735 420.167 139.722 379.802 185.489Z" stroke="white" stroke-width="2"/>
<path d="M302.692 353.808C240.405 425.736 131.825 433.357 60.1732 370.832C-11.479 308.306 -19.0721 199.31 43.2151 127.382C105.502 55.454 214.082 47.8328 285.734 110.358C357.386 172.883 364.979 281.879 302.692 353.808Z" stroke="white" stroke-width="2"/>
<path fill-rule="evenodd" clip-rule="evenodd" d="M343.421 213.491C304.588 231.398 257.218 225.887 223.166 195.624C186.394 162.943 176.282 111.289 194.505 68.2886C227.288 72.4574 259.24 86.0886 286.051 109.485C318.036 137.396 337.33 174.512 343.421 213.491Z" fill="#E20016"/>
</g>
<defs>
<clipPath id="clip0">
<rect width="411" height="414" fill="white"/>
</clipPath>
</defs>
</svg>
