<svg width="411" height="414" viewBox="0 0 411 414" fill="none" xmlns="http://www.w3.org/2000/svg">
<g clip-path="url(#clip0)">
<path d="M380.176 185.821C339.629 231.795 269.632 236.068 223.834 195.366C178.036 154.664 173.779 84.3986 214.326 38.4245C254.874 -7.54955 324.87 -11.8226 370.668 28.8797C416.466 69.5821 420.723 139.847 380.176 185.821Z" stroke="white"/>
<path d="M303.069 354.136C240.601 426.273 131.707 433.917 59.8461 371.21C-12.0143 308.502 -19.6292 199.19 42.8386 127.053C105.306 54.9167 214.201 47.2731 286.061 109.98C357.922 172.687 365.537 282 303.069 354.136Z" stroke="white"/>
<path fill-rule="evenodd" clip-rule="evenodd" d="M343.42 213.491C304.587 231.398 257.218 225.887 223.166 195.624C186.393 162.943 176.282 111.289 194.505 68.2886C227.287 72.4574 259.239 86.0886 286.051 109.485C318.035 137.396 337.329 174.513 343.42 213.491Z" fill="#E20016"/>
</g>
<defs>
<clipPath id="clip0">
<rect width="411" height="414" fill="white"/>
</clipPath>
</defs>
</svg>
