<svg width="248" height="286" viewBox="0 0 248 286" fill="none" xmlns="http://www.w3.org/2000/svg">
<path d="M159 0H54.2619L0 151.858H45.4286L7.57143 286L138.81 101.239H92.119L159 0Z" fill="#E20016"/>
<path d="M41 211.242C41 202.95 42.1608 195.266 44.4825 188.188C46.9052 181.009 50.2868 174.841 54.6273 169.684C59.0688 164.426 64.4188 160.331 70.6773 157.398C76.9358 154.466 84.0018 153 91.8754 153C99.749 153 106.815 154.466 113.073 157.398C119.433 160.331 124.783 164.426 129.123 169.684C133.565 174.841 136.947 181.009 139.268 188.188C141.59 195.266 142.751 202.95 142.751 211.242C142.751 219.836 141.59 227.824 139.268 235.206C136.947 242.486 133.615 248.805 129.275 254.165C124.934 259.422 119.584 263.568 113.225 266.602C106.966 269.534 99.8499 271 91.8754 271C83.9009 271 76.7339 269.534 70.3745 266.602C64.116 263.568 58.766 259.422 54.3245 254.165C49.9839 248.805 46.6528 242.486 44.3311 235.206C42.1104 227.824 41 219.836 41 211.242ZM74.7655 212C74.7655 216.247 75.1188 220.19 75.8254 223.83C76.633 227.47 77.7433 230.656 79.1565 233.386C80.6707 236.015 82.4877 238.087 84.6075 239.604C86.7273 241.121 89.1499 241.879 91.8754 241.879C94.6008 241.879 96.973 241.121 98.9919 239.604C101.112 238.087 102.878 236.015 104.291 233.386C105.806 230.656 106.916 227.47 107.623 223.83C108.43 220.19 108.834 216.247 108.834 212C108.834 203.405 107.37 196.479 104.443 191.221C101.515 185.963 97.3263 183.334 91.8754 183.334C86.4244 183.334 82.1848 185.963 79.1565 191.221C76.2292 196.479 74.7655 203.405 74.7655 212Z" fill="white"/>
<path d="M161.04 238.782H174.428V232.14H161.04V216.047H174.428V172.877H209.365C214.891 172.877 219.991 173.473 224.666 174.665C229.426 175.857 233.507 177.688 236.907 180.157C240.392 182.626 243.112 185.734 245.067 189.481C247.022 193.142 248 197.527 248 202.636C248 207.49 247.15 211.79 245.45 215.536C243.75 219.198 241.327 222.263 238.182 224.732C235.122 227.202 231.382 229.075 226.961 230.352C222.626 231.544 217.781 232.14 212.425 232.14H203.117V238.782H234.484V254.875H203.117V269.18H174.428V254.875H161.04V238.782ZM205.923 216.047C209.918 216.047 213.148 215.238 215.613 213.62C218.078 211.918 219.311 208.937 219.311 204.68C219.311 202.551 218.971 200.806 218.291 199.443C217.611 198.081 216.633 197.017 215.358 196.25C214.168 195.399 212.723 194.803 211.023 194.462C209.408 194.121 207.623 193.951 205.668 193.951H203.117V216.047H205.923Z" fill="white"/>
</svg>
