<svg width="225" height="207" viewBox="0 0 225 207" fill="none" xmlns="http://www.w3.org/2000/svg">
<path d="M115 0H39.246L0 109.912H32.8571L5.47619 207L100.397 73.2743H66.627L115 0Z" fill="#E20016"/>
<path d="M30 153.447C30 147.404 30.8356 141.804 32.5068 136.645C34.2506 131.413 36.6847 126.918 39.809 123.159C43.0061 119.327 46.857 116.343 51.3619 114.206C55.8668 112.069 60.953 111 66.6204 111C72.2879 111 77.3741 112.069 81.879 114.206C86.4565 116.343 90.3075 119.327 93.4318 123.159C96.6289 126.918 99.063 131.413 100.734 136.645C102.405 141.804 103.241 147.404 103.241 153.447C103.241 159.711 102.405 165.533 100.734 170.913C99.063 176.219 96.6652 180.824 93.5408 184.73C90.4165 188.562 86.5655 191.584 81.9879 193.794C77.4831 195.931 72.3605 197 66.6204 197C60.8803 197 55.7215 195.931 51.1439 193.794C46.6391 191.584 42.7881 188.562 39.5911 184.73C36.4667 180.824 34.0689 176.219 32.3978 170.913C30.7993 165.533 30 159.711 30 153.447ZM54.3046 154C54.3046 157.095 54.5589 159.969 55.0676 162.622C55.6488 165.275 56.4481 167.596 57.4653 169.586C58.5552 171.502 59.8631 173.013 61.389 174.118C62.9148 175.224 64.6586 175.776 66.6204 175.776C68.5823 175.776 70.2898 175.224 71.7429 174.118C73.2688 173.013 74.5403 171.502 75.5576 169.586C76.6475 167.596 77.4467 165.275 77.9553 162.622C78.5366 159.969 78.8273 157.095 78.8273 154C78.8273 147.736 77.7737 142.688 75.6666 138.856C73.5594 135.024 70.5441 133.108 66.6204 133.108C62.6968 133.108 59.6451 135.024 57.4653 138.856C55.3582 142.688 54.3046 147.736 54.3046 154Z" fill="white"/>
<path d="M116.406 173.519H126.043V168.679H116.406V156.95H126.043V125.487H151.19C155.168 125.487 158.839 125.921 162.204 126.79C165.631 127.659 168.568 128.993 171.015 130.792C173.524 132.592 175.482 134.857 176.889 137.588C178.296 140.256 179 143.452 179 147.176C179 150.713 178.388 153.847 177.164 156.577C175.941 159.246 174.197 161.48 171.933 163.28C169.73 165.079 167.038 166.444 163.856 167.375C160.736 168.244 157.248 168.679 153.393 168.679H146.693V173.519H169.271V185.248H146.693V195.674H126.043V185.248H116.406V173.519ZM148.712 156.95C151.588 156.95 153.913 156.36 155.688 155.181C157.462 153.94 158.349 151.768 158.349 148.665C158.349 147.114 158.105 145.841 157.615 144.848C157.126 143.856 156.422 143.08 155.504 142.521C154.648 141.901 153.607 141.466 152.384 141.218C151.221 140.97 149.936 140.846 148.529 140.846H146.693V156.95H148.712Z" fill="white"/>
</svg>
