<svg width="411" height="414" viewBox="0 0 411 414" fill="none" xmlns="http://www.w3.org/2000/svg">
<g clip-path="url(#clip0)">
<path d="M345.974 180.095H347.397V178.672V159.145C364.791 155.084 379.199 146.707 390.568 134.007L390.573 134.002C403.241 119.707 409.588 102.998 409.588 83.9361C409.588 61.7005 401.255 42.7458 384.653 27.1506C366.473 9.97339 343.173 1.42266 314.879 1.42266C286.33 1.42266 263.397 9.97139 246.238 27.1817C231.454 42.0101 223.554 60.809 222.503 83.4803L222.434 84.9689H223.924H292.335H293.757V83.5462C293.757 75.5031 296.005 69.4045 300.339 65.0577L300.37 65.0263L300.399 64.9929C303.955 60.9514 309.095 58.8483 316.045 58.8483C323.767 58.8483 329.562 61.2082 333.641 65.78L333.667 65.8095L333.695 65.8375C337.771 69.9263 339.887 75.6365 339.887 83.1564C339.887 91.0905 337.061 97.8785 331.363 103.594C323.153 111.829 311.382 116.041 295.833 116.041C291.835 116.041 287.559 115.415 282.999 114.144L281.194 113.641V115.515V178.672V180.095H282.617H345.974Z" stroke="white" stroke-width="2.84536"/>
<path d="M337.776 253.442C331.267 259.945 323.603 263.196 314.785 263.196C305.967 263.196 298.303 259.945 291.794 253.442C285.285 246.94 282.031 239.284 282.031 230.474C282.031 221.665 285.285 214.009 291.794 207.506C298.303 201.004 305.967 197.753 314.785 197.753C323.603 197.753 331.372 201.109 338.091 207.821C344.18 213.904 347.224 221.455 347.224 230.474C347.224 239.494 344.075 247.15 337.776 253.442Z" fill="#DF0016"/>
<path d="M230.208 411.564L230.495 412.349H231.33H313.54H315.264L314.659 410.735L203.119 113.395L202.828 112.62H202.001H118.013H117.191L116.898 113.388L3.13641 410.728L2.51628 412.349H4.25171H85.5733H86.3814L86.6819 411.599L106.379 362.421H212.275L230.208 411.564ZM128.563 301.188L159.356 209.787L190.992 301.188H128.563Z" stroke="white" stroke-width="2.38827"/>
</g>
<defs>
<clipPath id="clip0">
<rect width="411" height="414" fill="white"/>
</clipPath>
</defs>
</svg>
