<svg width="411" height="414" viewBox="0 0 411 414" fill="none" xmlns="http://www.w3.org/2000/svg">
<path d="M345.974 179.172H346.474V178.672V158.41C364.015 154.454 378.49 146.115 389.881 133.392L389.882 133.39C402.401 119.264 408.665 102.772 408.665 83.9361C408.665 61.9623 400.443 43.2485 384.021 27.8224C366.035 10.8288 342.973 2.34534 314.879 2.34534C286.527 2.34534 263.846 10.8281 246.892 27.8332C232.285 42.4841 224.466 61.0589 223.425 83.5231L223.4 84.0462H223.924H292.334H292.834V83.5462C292.834 75.3255 295.137 68.9681 299.685 64.4063L299.696 64.3952L299.706 64.3835C303.477 60.0975 308.897 57.9256 316.045 57.9256C323.968 57.9256 330.039 60.3564 334.329 65.1658L334.338 65.1762L334.348 65.186C338.638 69.4886 340.81 75.4566 340.81 83.1564C340.81 91.3388 337.884 98.3599 332.016 104.246C323.585 112.702 311.549 116.964 295.833 116.964C291.739 116.964 287.379 116.322 282.751 115.033L282.117 114.856V115.515V178.672V179.172H282.617H345.974Z" stroke="white"/>
<path d="M337.776 253.442C331.267 259.945 323.603 263.196 314.785 263.196C305.967 263.196 298.303 259.945 291.794 253.442C285.285 246.94 282.031 239.284 282.031 230.474C282.031 221.665 285.285 214.009 291.794 207.506C298.303 201.004 305.967 197.753 314.785 197.753C323.603 197.753 331.372 201.109 338.091 207.821C344.18 213.904 347.224 221.455 347.224 230.474C347.224 239.494 344.075 247.15 337.776 253.442Z" fill="#DF0016"/>
<path d="M230.861 411.326L230.981 411.655H231.33H313.541H314.262L314.009 410.979L202.47 113.639L202.348 113.314H202.001H118.013H117.669L117.546 113.636L3.78509 410.976L3.52543 411.655H4.25208H85.5737H85.912L86.0378 411.341L105.909 361.726H212.761L230.861 411.326ZM127.597 301.882L159.347 207.64L191.967 301.882H127.597Z" stroke="white"/>
</svg>
