<svg width="16" height="23" viewBox="0 0 16 23" fill="none" xmlns="http://www.w3.org/2000/svg">
<path d="M4.75 22.3333H11.25V20.1667H4.75V22.3333ZM6.41833 0.829152C3.43917 1.43582 1.06667 3.87332 0.535833 6.87415C-0.0166668 10.005 1.35917 12.8542 3.66667 14.4683V18H12.3333V14.4683C14.2942 13.0925 15.5833 10.8283 15.5833 8.24998C15.5833 3.54832 11.2825 -0.167515 6.41833 0.829152ZM11.0875 12.6917L10.1667 13.3417V15.8333H5.83333V13.3417L4.9125 12.6917C3.45 11.6733 2.58333 10.0158 2.58333 8.24998C2.58333 5.25998 5.01 2.83332 8 2.83332C10.99 2.83332 13.4167 5.25998 13.4167 8.24998C13.4167 10.0158 12.55 11.6733 11.0875 12.6917Z" fill="white"/>
</svg>
