<svg width="45" height="45" viewBox="0 0 45 45" fill="none" xmlns="http://www.w3.org/2000/svg">
<path fill-rule="evenodd" clip-rule="evenodd" d="M14.3037 15.5127C14.3024 15.4998 14.3009 15.4848 14.2995 15.4678C14.2945 15.4113 14.2891 15.333 14.2857 15.2359C14.2788 15.0421 14.28 14.7714 14.3102 14.4489C14.3703 13.8072 14.5477 12.9397 15.0247 12.0646C16.0141 10.2496 18.1642 8.62573 22.5041 8.62573C26.8441 8.62573 28.9941 10.2496 29.9836 12.0646C30.4606 12.9397 30.6379 13.8072 30.6981 14.4489C30.7283 14.7714 30.7294 15.0421 30.7226 15.2359C30.7192 15.333 30.7137 15.4113 30.7088 15.4678C30.7073 15.4848 30.7059 15.4998 30.7046 15.5127V19.0847C31.1206 19.5664 31.3816 20.1944 31.3816 20.89V23.5996C31.3816 24.7112 30.723 25.6566 29.7915 26.1012C29.3136 27.4838 28.6502 28.8062 27.7913 30.0194C27.6274 30.2509 27.468 30.4618 27.3171 30.6471V32.9116C27.3171 33.5624 27.6849 34.1573 28.2661 34.4474L34.7366 37.6823C35.1614 37.8947 36.1029 38.4804 36.4837 38.8018L35.5163 39.9482C35.2506 39.724 34.4174 39.1997 34.0658 39.0239C34.0658 39.0239 34.0658 39.0239 34.0658 39.0239L27.5962 35.7895C26.5054 35.2451 25.8171 34.1299 25.8171 32.9116V30.0905L26.0036 29.8782C26.164 29.6955 26.3557 29.4512 26.5671 29.1526C27.402 27.9733 28.036 26.6727 28.4765 25.3033L28.5961 24.9314L28.9694 24.8163C29.5019 24.652 29.8816 24.1639 29.8816 23.5996V20.89C29.8816 20.5226 29.7198 20.1871 29.4517 19.9448L29.2046 19.7215V15.4221L29.2106 15.3767L29.2108 15.3749L29.2112 15.3718C29.2118 15.3658 29.213 15.3544 29.2144 15.338C29.2173 15.3052 29.2211 15.2526 29.2235 15.183C29.2284 15.0435 29.228 14.8379 29.2046 14.5889C29.1577 14.0877 29.0202 13.4313 28.6665 12.7825C27.9945 11.5497 26.4193 10.1257 22.5041 10.1257C18.589 10.1257 17.0138 11.5497 16.3417 12.7825C15.9881 13.4313 15.8506 14.0877 15.8036 14.5889C15.7803 14.8379 15.7798 15.0435 15.7847 15.183C15.7872 15.2526 15.791 15.3052 15.7938 15.338C15.7952 15.3544 15.7964 15.3658 15.7971 15.3718L15.7976 15.376L15.8037 15.4221V19.7211L15.557 19.9444C15.2888 20.1873 15.1266 20.5232 15.1266 20.89V23.5996C15.1266 24.0435 15.3596 24.441 15.7209 24.6748L15.9764 24.8401L16.0445 25.1367C16.3604 26.5135 16.936 27.7083 17.4387 28.5641C17.689 28.9903 17.9186 29.3278 18.0837 29.5565C18.1662 29.6708 18.2324 29.7576 18.2768 29.8144C18.299 29.8428 18.3157 29.8637 18.3263 29.8767L18.3374 29.8904L18.3387 29.892L18.5133 30.1008V32.8489C18.5133 34.0269 17.8696 35.1098 16.8366 35.6736L10.7943 38.9695C10.674 39.035 10.4291 39.2049 10.1483 39.417C9.87825 39.6208 9.62223 39.8274 9.49314 39.9401L8.50684 38.8099C8.67193 38.6658 8.95812 38.436 9.24445 38.2198C9.51975 38.012 9.84558 37.7782 10.076 37.6527C10.0761 37.6526 10.0759 37.6527 10.076 37.6527L16.118 34.357C16.6698 34.0558 17.0133 33.4774 17.0133 32.8489V30.6319C16.9711 30.5761 16.9221 30.5101 16.8676 30.4346C16.6791 30.1735 16.4229 29.7965 16.1453 29.3239C15.6246 28.4375 15.0187 27.1985 14.6488 25.7463C14.031 25.2391 13.6266 24.4692 13.6266 23.5996V20.89C13.6266 20.1939 13.8885 19.5662 14.3037 19.085V15.5127Z" fill="white"/>
<path fill-rule="evenodd" clip-rule="evenodd" d="M22.5 43.5C34.098 43.5 43.5 34.098 43.5 22.5C43.5 10.902 34.098 1.5 22.5 1.5C10.902 1.5 1.5 10.902 1.5 22.5C1.5 34.098 10.902 43.5 22.5 43.5ZM22.5 45C34.9264 45 45 34.9264 45 22.5C45 10.0736 34.9264 0 22.5 0C10.0736 0 0 10.0736 0 22.5C0 34.9264 10.0736 45 22.5 45Z" fill="white"/>
</svg>
