<svg width="45" height="45" viewBox="0 0 45 45" fill="none" xmlns="http://www.w3.org/2000/svg">
<path d="M9 39.375C9.2942 39.1183 10.0844 38.5021 10.4351 38.3111L16.4773 35.0153C17.2697 34.5828 17.7634 33.7522 17.7634 32.8489V30.3731C17.7634 30.3731 15.9898 28.2518 15.3135 25.3045C14.7526 24.9415 14.3766 24.3141 14.3766 23.5997V20.89C14.3766 20.294 14.6418 19.7613 15.0537 19.3884V15.4714C15.0537 15.4714 14.249 9.37576 22.5041 9.37576C30.7593 9.37576 29.9546 15.4714 29.9546 15.4714V19.3884C30.3673 19.7613 30.6317 20.294 30.6317 20.89V23.5997C30.6317 24.5105 30.0203 25.277 29.1905 25.533C28.7282 26.9703 28.0611 28.3405 27.1792 29.586C26.9569 29.9001 26.749 30.166 26.5671 30.3731V32.9116C26.5671 33.8462 27.0952 34.7013 27.9312 35.1185L34.4012 38.3531C34.7894 38.5472 35.6768 39.1022 36 39.375" stroke="white"/>
<circle cx="22.5" cy="22.5" r="21.6667" stroke="white" stroke-width="1.66667"/>
</svg>
