<svg width="22" height="22" viewBox="0 0 22 22" fill="none" xmlns="http://www.w3.org/2000/svg">
<path d="M11 0.166656C5.04166 0.166656 0.166664 5.04166 0.166664 11C0.166664 16.9583 5.04166 21.8333 11 21.8333C16.9583 21.8333 21.8333 16.9583 21.8333 11C21.8333 5.04166 16.9583 0.166656 11 0.166656ZM11 19.6667C6.2225 19.6667 2.33333 15.7775 2.33333 11C2.33333 6.22249 6.2225 2.33332 11 2.33332C15.7775 2.33332 19.6667 6.22249 19.6667 11C19.6667 15.7775 15.7775 19.6667 11 19.6667ZM11.5417 5.58332H9.91666V12.0833L15.55 15.55L16.4167 14.1417L11.5417 11.2167V5.58332Z" fill="white"/>
</svg>
